<?xml version="1.0" encoding="UTF-8"?>
<svg width="68px" height="44px" viewBox="0 0 68 44" version="1.1" xmlns="http://www.w3.org/2000/svg" xmlns:xlink="http://www.w3.org/1999/xlink">
    <!-- Generator: Sketch 3.8.1 (29687) - http://www.bohemiancoding.com/sketch -->
    <title>Group 4</title>
    <desc>Created with Sketch.</desc>
    <defs>
        <path d="M0.0271236165,39.5195799 C0.0091916765,39.3473151 4.26325641e-14,39.1724637 4.26325641e-14,38.9954787 L4.26325641e-14,30.9870679 C0.165580574,30.9956538 0.332282735,31 0.5,31 C5.74670512,31 10,26.7467051 10,21.5 C10,16.2532949 5.74670512,12 0.5,12 C0.332282735,12 0.165580574,12.0043462 1.75415238e-14,12.0129321 L4.26325641e-14,5.00452127 C4.26325641e-14,4.50835028 0.0722874299,4.02904401 0.206858906,3.57653724 C0.746203887,3.84747361 1.35528972,4 2,4 C4.209139,4 6,2.209139 6,0 L62,0 C62,2.209139 63.790861,4 66,4 C66.6447632,4 67.2538961,3.84744857 67.7932739,3.57647051 C67.9277772,4.0290686 68,4.5084133 68,5.00452127 L68,12.0129321 C67.8344194,12.0043462 67.6677173,12 67.5,12 C62.2532949,12 58,16.2532949 58,21.5 C58,26.7467051 62.2532949,31 67.5,31 C67.6677173,31 67.8344194,30.9956538 68,30.9870679 L68,38.9954787 C68,39.1724721 67.9908016,39.3473195 67.9728588,39.5195699 C67.3906866,39.1888585 66.7173984,39 66,39 C63.790861,39 62,40.790861 62,43 C62,43.3452996 62.043753,43.6803801 62.1260175,44 L5.87398251,44 C5.956247,43.6803801 6,43.3452996 6,43 C6,40.790861 4.209139,39 2,39 C1.28259432,39 0.60929981,39.1888624 0.0271236165,39.5195799 Z" id="path-1"></path>
        <mask id="mask-2" maskContentUnits="userSpaceOnUse" maskUnits="objectBoundingBox" x="0" y="0" width="68" height="44" fill="white">
            <use xlink:href="#path-1"></use>
        </mask>
        <rect id="path-3" x="14" y="7" width="40" height="30" rx="5"></rect>
        <mask id="mask-4" maskContentUnits="userSpaceOnUse" maskUnits="objectBoundingBox" x="0" y="0" width="40" height="30" fill="white">
            <use xlink:href="#path-3"></use>
        </mask>
    </defs>
    <g id="Page-1" stroke="none" stroke-width="1" fill="none" fill-rule="evenodd">
        <g id="Desktop-HD" transform="translate(-273.000000, -845.000000)">
            <g id="Group-3-Copy" transform="translate(162.000000, 809.000000)">
                <g id="Group-4" transform="translate(111.000000, 36.000000)">
                    <use id="Combined-Shape" stroke="#4285F5" mask="url(#mask-2)" stroke-width="4" fill="#FFFFFF" xlink:href="#path-1"></use>
                    <use id="Rectangle-69" stroke="#4285F5" mask="url(#mask-4)" stroke-width="4" fill="#FFFFFF" xlink:href="#path-3"></use>
                    <rect id="Rectangle-70" fill="#4285F6" x="37" y="18" width="8" height="2" rx="1"></rect>
                    <rect id="Rectangle-70-Copy" fill="#4285F6" x="46" y="18" width="3" height="2" rx="1"></rect>
                    <rect id="Rectangle-70-Copy-3" fill="#4285F6" transform="translate(41.000000, 27.000000) scale(-1, 1) translate(-41.000000, -27.000000) " x="37" y="26" width="8" height="2" rx="1"></rect>
                    <rect id="Rectangle-70-Copy-4" fill="#4285F6" transform="translate(45.000000, 23.000000) scale(-1, 1) translate(-45.000000, -23.000000) " x="41" y="22" width="8" height="2" rx="1"></rect>
                    <rect id="Rectangle-70-Copy-2" fill="#4285F6" transform="translate(47.500000, 27.000000) scale(-1, 1) translate(-47.500000, -27.000000) " x="46" y="26" width="3" height="2" rx="1"></rect>
                    <rect id="Rectangle-70-Copy-5" fill="#4285F6" transform="translate(38.500000, 23.000000) scale(-1, 1) translate(-38.500000, -23.000000) " x="37" y="22" width="3" height="2" rx="1"></rect>
                    <polygon id="Star-1" fill="#4285F5" points="24.5 25.7567708 20.6793959 27.7586105 21.4026269 23.5063975 18.3181326 20.4913895 22.5857181 19.865217 24.5 16 26.4142819 19.865217 30.6818674 20.4913895 27.5973731 23.5063975 28.3206041 27.7586105"></polygon>
                </g>
            </g>
        </g>
    </g>
</svg>